Coordinates
version=1
nRows=12
nColumns=24
inDegrees=yes

Units are S.I. units (second, meters, Newtons, ...)
Angles are in degrees.

endheader
time	pelvis_tilt	pelvis_list	pelvis_rotation	pelvis_tx	pelvis_ty	pelvis_tz	hip_flexion_r	hip_adduction_r	hip_rotation_r	knee_angle_r	ankle_angle_r	subtalar_angle_r	mtp_angle_r	hip_flexion_l	hip_adduction_l	hip_rotation_l	knee_angle_l	ankle_angle_l	subtalar_angle_l	mtp_angle_l	lumbar_extension	lumbar_bending	lumbar_rotation
      0.50400000	      1.06882540	      3.32631863	      1.09043018	     -0.75696664	      1.00505518	      0.25422032	     21.77284289	     -1.35659474	     -8.72465450	     -7.20628750	      5.71767227	     -5.06050765	     10.91046802	    -15.36581885	      6.94408764	      5.17831340	     -5.44063219	     10.94220721	    -11.96232676	      2.27517319	     -6.23202735	     -5.07095635	     -2.41996504
      0.50816667	      1.13758874	      3.33228872	      1.15188773	     -0.75124062	      1.00467054	      0.25427651	     21.62795392	     -1.29765685	     -8.52536560	     -7.37940551	      5.78226916	     -5.26829987	     10.91687114	    -15.47899266	      6.92884481	      5.13660651	     -6.07431926	     11.05415808	    -11.79000801	      2.32590422	     -6.25823884	     -5.04837771	     -2.45568739
      0.51233333	      1.19419703	      3.33373881	      1.21274877	     -0.74547448	      1.00430544	      0.25433746	     21.48570789	     -1.23444266	     -8.29074565	     -7.58937561	      5.79308148	     -5.51071530	     10.93492735	    -15.54793141	      6.90698362	      5.07014641	     -6.76887317	     11.16050226	    -11.57673482	      2.39908441	     -6.26515683	     -5.01290355	     -2.52516150
      0.51650000	      1.24516158	      3.33744387	      1.26746500	     -0.73967525	      1.00396572	      0.25441346	     21.34009681	     -1.17211683	     -8.01787148	     -7.83310721	      5.76620641	     -5.78449924	     10.96575908	    -15.58282647	      6.88659726	      4.97885726	     -7.51711185	     11.24611031	    -11.32926433	      2.49675645	     -6.26195949	     -4.98418381	     -2.57407212
      0.52066667	      1.30281825	      3.33691223	      1.31813979	     -0.73384482	      1.00366493	      0.25449811	     21.17808136	     -1.10594820	     -7.72798345	     -8.10424588	      5.68276337	     -6.08012713	     11.01140615	    -15.58910671	      6.85883349	      4.85140109	     -8.33861079	     11.32285696	    -11.03043230	      2.62837431	     -6.26470876	     -4.94411502	     -2.61308308
      0.52483333	      1.36641709	      3.34290108	      1.36367948	     -0.72799318	      1.00340182	      0.25459569	     21.00221648	     -1.04614765	     -7.41716018	     -8.39875194	      5.56876990	     -6.38165667	     11.06820306	    -15.57307106	      6.83548894	      4.69962816	     -9.21077752	     11.36582303	    -10.71126442	      2.78805881	     -6.26917133	     -4.91529231	     -2.64047397
      0.52900000	      1.42798489	      3.34603701	      1.40466554	     -0.72211300	      1.00316535	      0.25470200	     20.82392901	     -0.98484850	     -7.09906112	     -8.71949148	      5.40074094	     -6.70422201	     11.13784521	    -15.51422398	      6.80579571	      4.50731204	    -10.16455329	     11.39380632	    -10.34336019	      2.98448813	     -6.26653668	     -4.88124647	     -2.65242628
      0.53316667	      1.48559997	      3.34613035	      1.44243019	     -0.71621266	      1.00295542	      0.25481600	     20.64599387	     -0.92245260	     -6.78452642	     -9.06028794	      5.18495564	     -7.02796179	     11.22417247	    -15.40976361	      6.76720399	      4.26458788	    -11.19593138	     11.39602021	     -9.91322856	      3.23569126	     -6.25589015	     -4.83748718	     -2.65445008
      0.53733333	      1.52480470	      3.35406117	      1.47693964	     -0.71030099	      1.00275525	      0.25494192	     20.48710489	     -0.87070663	     -6.46175079	     -9.42376060	      4.93956563	     -7.35859582	     11.31591832	    -15.24338107	      6.73256530	      3.99595699	    -12.30113892	     11.36092333	     -9.45566678	      3.52054662	     -6.22111444	     -4.80903832	     -2.64493398
      0.54150000	      1.61732840	      3.35182291	      1.47940668	     -0.70438002	      1.00262240	      0.25510039	     20.29124514	     -0.80944780	     -6.18617410	     -9.84241971	      4.68909328	     -7.58615736	     12.97864988	    -15.09814407	      6.67921649	      3.60848227	    -13.46155990	     11.21794684	     -8.97840035	      9.00646042	     -6.25257041	     -4.75484453	     -2.60340549
      0.54566667	      1.65136855	      3.35103756	      1.53573943	     -0.69845686	      1.00248564	      0.25522405	     20.12197827	     -0.75976151	     -5.88992688	    -10.21131897	      4.34191306	     -8.00110269	     12.96332896	    -14.84050634	      6.61590629	      3.32764559	    -14.72756672	     11.09707617	     -8.49134134	      9.08337640	     -6.20871958	     -4.71745734	     -2.59449683
      0.54983333	      1.70559857	      3.34841825	      1.55880100	     -0.69253941	      1.00238017	      0.25539268	     19.95524632	     -0.70782498	     -5.62240806	    -10.63858620	      4.03928785	     -8.29916450	     12.95983195	    -14.55464126	      6.54094125	      2.91581442	    -16.07604002	     10.95350230	     -7.86663580	      9.22484479	     -6.18605358	     -4.67141302	     -2.54914049
